<?xml version="1.0" standalone="no"?>
<!DOCTYPE svg PUBLIC "-//W3C//DTD SVG 20010904//EN"
 "http://www.w3.org/TR/2001/REC-SVG-20010904/DTD/svg10.dtd">
<svg version="1.0" xmlns="http://www.w3.org/2000/svg"
 width="492.000000pt" height="492.000000pt" viewBox="0 0 492.000000 492.000000"
 preserveAspectRatio="xMidYMid meet">

<g transform="translate(0.000000,492.000000) scale(0.100000,-0.100000)"
fill="#000000" stroke="none">
<path d="M2250 4899 c-307 -27 -579 -103 -865 -244 -404 -198 -717 -473 -970
-850 -84 -125 -222 -406 -269 -545 -178 -534 -178 -1066 0 -1600 47 -139 185
-420 269 -545 189 -282 419 -512 700 -700 126 -84 407 -223 545 -269 534 -178
1066 -178 1600 0 138 46 419 185 545 269 281 188 511 418 700 700 84 125 222
406 269 545 170 509 178 1007 25 1524 -20 68 -21 69 -37 49 -10 -12 -81 -103
-159 -202 l-143 -180 17 -103 c22 -142 21 -437 -1 -583 -115 -735 -595 -1336
-1282 -1605 -233 -91 -463 -133 -734 -133 -271 0 -501 42 -734 133 -687 269
-1167 870 -1282 1605 -23 149 -23 441 0 590 111 712 565 1300 1220 1579 433
185 926 212 1386 75 56 -16 106 -26 112 -23 6 4 87 69 180 146 l169 139 -75
34 c-341 155 -788 229 -1186 194z"/>
<path d="M4060 4236 c-63 -35 -539 -514 -734 -739 -223 -257 -442 -548 -644
-852 -80 -121 -149 -224 -153 -229 -5 -5 -58 39 -119 97 -119 114 -257 223
-384 302 -91 56 -48 52 -458 47 l-247 -2 -21 -69 c-11 -37 -20 -73 -20 -79 0
-5 30 -32 68 -58 201 -144 466 -398 636 -610 178 -222 352 -506 492 -802 l72
-153 68 128 c337 641 644 1143 1022 1673 315 441 728 950 1080 1333 l26 27
-330 0 c-260 -1 -334 -4 -354 -14z"/>
</g>
</svg>
